# xmcd
#
# Track frame offsets:
#	150
#	13191
#	23423
#	41022
#	52686
#	63817
#	77179
#	94789
#	104563
#	129386
#	138248
#
# Disc length: 2064 seconds
#
# Revision: 1
# Processed by: cddbd v1.5.2PL0 Copyright (c) Steve Scherf et al.
# Submitted via: EZCDAudioConverter 8.5.0.1
#
DISCID=82080e0b
DTITLE=Townes Van Zandt - Sky Blue
DYEAR=2019
DGENRE=Country
TTITLE0=All I Need
TTITLE1=Rex's Blues
TTITLE2=The Hills Of Roane County
TTITLE3=Sky Blue
TTITLE4=Forever, For Always, For Certain
TTITLE5=Blue Ridge Mtns. (Smoky Version)
TTITLE6=Pancho and Lefty
TTITLE7=Snake Song
TTITLE8=Silver Ships Of Andilar
TTITLE9=Dream Spider
TTITLE10=Last Thing On My Mind
EXTD=
EXTT0=
EXTT1=
EXTT2=
EXTT3=
EXTT4=
EXTT5=
EXTT6=
EXTT7=
EXTT8=
EXTT9=
EXTT10=
PLAYORDER=
